<mxfile host="Electron" agent="Mozilla/5.0 (Windows NT 10.0; Win64; x64) AppleWebKit/537.36 (KHTML, like Gecko) draw.io/24.7.5 Chrome/126.0.6478.183 Electron/31.3.0 Safari/537.36" version="24.7.5">
  <diagram name="Page-1" id="xTTMLa0MPuVGnHOgrUf_">
    <mxGraphModel dx="2390" dy="1393" grid="1" gridSize="10" guides="1" tooltips="1" connect="1" arrows="1" fold="1" page="1" pageScale="1" pageWidth="850" pageHeight="1100" math="0" shadow="0">
      <root>
        <mxCell id="0" />
        <mxCell id="1" parent="0" />
        <mxCell id="EO0mccmYexMyjMeg_kil-9" value="&amp;lt;&amp;lt;component&amp;gt;&amp;gt;&lt;br&gt;Client" style="html=1;dropTarget=0;whiteSpace=wrap;verticalAlign=top;" parent="1" vertex="1">
          <mxGeometry x="70" y="496" width="240" height="217.5" as="geometry" />
        </mxCell>
        <mxCell id="EO0mccmYexMyjMeg_kil-10" value="" style="shape=module;jettyWidth=8;jettyHeight=4;" parent="EO0mccmYexMyjMeg_kil-9" vertex="1">
          <mxGeometry x="1" width="20" height="20" relative="1" as="geometry">
            <mxPoint x="-27" y="7" as="offset" />
          </mxGeometry>
        </mxCell>
        <mxCell id="EO0mccmYexMyjMeg_kil-1" value="&amp;lt;&amp;lt;component&amp;gt;&amp;gt;&lt;br&gt;User Interface" style="html=1;dropTarget=0;whiteSpace=wrap;" parent="1" vertex="1">
          <mxGeometry x="110" y="550" width="160" height="50" as="geometry" />
        </mxCell>
        <mxCell id="EO0mccmYexMyjMeg_kil-2" value="" style="shape=module;jettyWidth=8;jettyHeight=4;" parent="EO0mccmYexMyjMeg_kil-1" vertex="1">
          <mxGeometry x="1" width="20" height="20" relative="1" as="geometry">
            <mxPoint x="-27" y="7" as="offset" />
          </mxGeometry>
        </mxCell>
        <mxCell id="EO0mccmYexMyjMeg_kil-12" value="&amp;lt;&amp;lt;component&amp;gt;&amp;gt;&lt;br&gt;Web Server" style="html=1;dropTarget=0;whiteSpace=wrap;verticalAlign=top;" parent="1" vertex="1">
          <mxGeometry x="525" y="460" width="955" height="350" as="geometry" />
        </mxCell>
        <mxCell id="EO0mccmYexMyjMeg_kil-13" value="" style="shape=module;jettyWidth=8;jettyHeight=4;" parent="EO0mccmYexMyjMeg_kil-12" vertex="1">
          <mxGeometry x="1" width="20" height="20" relative="1" as="geometry">
            <mxPoint x="-27" y="7" as="offset" />
          </mxGeometry>
        </mxCell>
        <mxCell id="059MK03bxlvWC0EkIkUJ-62" style="edgeStyle=orthogonalEdgeStyle;rounded=0;orthogonalLoop=1;jettySize=auto;html=1;exitX=1;exitY=0.5;exitDx=0;exitDy=0;endArrow=halfCircle;endFill=0;" edge="1" parent="1" source="EO0mccmYexMyjMeg_kil-21">
          <mxGeometry relative="1" as="geometry">
            <mxPoint x="880" y="561" as="targetPoint" />
            <Array as="points">
              <mxPoint x="844" y="561" />
              <mxPoint x="880" y="561" />
            </Array>
          </mxGeometry>
        </mxCell>
        <mxCell id="059MK03bxlvWC0EkIkUJ-68" style="edgeStyle=orthogonalEdgeStyle;rounded=0;orthogonalLoop=1;jettySize=auto;html=1;exitX=0.5;exitY=1;exitDx=0;exitDy=0;endArrow=halfCircle;endFill=0;" edge="1" parent="1" source="EO0mccmYexMyjMeg_kil-21">
          <mxGeometry relative="1" as="geometry">
            <mxPoint x="810" y="720" as="targetPoint" />
            <Array as="points">
              <mxPoint x="705" y="720" />
            </Array>
          </mxGeometry>
        </mxCell>
        <mxCell id="EO0mccmYexMyjMeg_kil-21" value="&amp;lt;&amp;lt;component&amp;gt;&amp;gt;&lt;div&gt;API Controller&lt;/div&gt;" style="html=1;dropTarget=0;whiteSpace=wrap;verticalAlign=top;" parent="1" vertex="1">
          <mxGeometry x="602.28" y="510.03" width="205.44" height="102.72" as="geometry" />
        </mxCell>
        <mxCell id="EO0mccmYexMyjMeg_kil-22" value="" style="shape=module;jettyWidth=8;jettyHeight=4;" parent="EO0mccmYexMyjMeg_kil-21" vertex="1">
          <mxGeometry x="1" width="20" height="20" relative="1" as="geometry">
            <mxPoint x="-27" y="7" as="offset" />
          </mxGeometry>
        </mxCell>
        <mxCell id="059MK03bxlvWC0EkIkUJ-7" value="&amp;lt;&amp;lt;component&amp;gt;&amp;gt;&lt;br&gt;Interactive Map" style="html=1;dropTarget=0;whiteSpace=wrap;" vertex="1" parent="1">
          <mxGeometry x="110" y="621.25" width="160" height="50" as="geometry" />
        </mxCell>
        <mxCell id="059MK03bxlvWC0EkIkUJ-8" value="" style="shape=module;jettyWidth=8;jettyHeight=4;" vertex="1" parent="059MK03bxlvWC0EkIkUJ-7">
          <mxGeometry x="1" width="20" height="20" relative="1" as="geometry">
            <mxPoint x="-27" y="7" as="offset" />
          </mxGeometry>
        </mxCell>
        <mxCell id="059MK03bxlvWC0EkIkUJ-85" style="edgeStyle=orthogonalEdgeStyle;rounded=0;orthogonalLoop=1;jettySize=auto;html=1;exitX=1;exitY=0.5;exitDx=0;exitDy=0;endArrow=halfCircle;endFill=0;" edge="1" parent="1" source="059MK03bxlvWC0EkIkUJ-17">
          <mxGeometry relative="1" as="geometry">
            <mxPoint x="1600" y="556.4" as="targetPoint" />
          </mxGeometry>
        </mxCell>
        <mxCell id="059MK03bxlvWC0EkIkUJ-17" value="" style="fontStyle=0;labelPosition=right;verticalLabelPosition=middle;align=left;verticalAlign=middle;spacingLeft=2;" vertex="1" parent="1">
          <mxGeometry x="1435.44" y="551.5" width="10" height="10" as="geometry" />
        </mxCell>
        <mxCell id="059MK03bxlvWC0EkIkUJ-47" value="JSON" style="text;strokeColor=none;fillColor=none;align=left;verticalAlign=middle;spacingLeft=4;spacingRight=4;overflow=hidden;points=[[0,0.5],[1,0.5]];portConstraint=eastwest;rotatable=0;whiteSpace=wrap;html=1;" vertex="1" parent="1">
          <mxGeometry x="404" y="569.5" width="42.75" height="30" as="geometry" />
        </mxCell>
        <mxCell id="059MK03bxlvWC0EkIkUJ-48" value="" style="html=1;rounded=0;" vertex="1" parent="1">
          <mxGeometry x="310" y="591.87" width="11.25" height="11.25" as="geometry" />
        </mxCell>
        <mxCell id="059MK03bxlvWC0EkIkUJ-49" value="" style="endArrow=none;html=1;rounded=0;align=center;verticalAlign=top;endFill=0;labelBackgroundColor=none;endSize=2;" edge="1" parent="1">
          <mxGeometry relative="1" as="geometry">
            <mxPoint x="420.09302325581393" y="597.62" as="targetPoint" />
            <mxPoint x="321.25" y="597.5017305284248" as="sourcePoint" />
          </mxGeometry>
        </mxCell>
        <mxCell id="059MK03bxlvWC0EkIkUJ-50" value="" style="html=1;rounded=0;" vertex="1" parent="1">
          <mxGeometry x="590.78" y="591.62" width="11.5" height="11.5" as="geometry" />
        </mxCell>
        <mxCell id="059MK03bxlvWC0EkIkUJ-52" value="" style="ellipse;html=1;fontSize=11;align=center;fillColor=none;points=[];aspect=fixed;resizable=0;verticalAlign=bottom;labelPosition=center;verticalLabelPosition=top;flipH=1;" vertex="1" parent="1">
          <mxGeometry x="425" y="593.37" width="8" height="8" as="geometry" />
        </mxCell>
        <mxCell id="059MK03bxlvWC0EkIkUJ-53" value="" style="endArrow=none;html=1;rounded=0;align=center;verticalAlign=top;endFill=0;labelBackgroundColor=none;endSize=2;entryX=0.639;entryY=0.923;entryDx=0;entryDy=0;entryPerimeter=0;" edge="1" parent="1" source="059MK03bxlvWC0EkIkUJ-50" target="059MK03bxlvWC0EkIkUJ-47">
          <mxGeometry relative="1" as="geometry">
            <mxPoint x="470" y="600" as="targetPoint" />
            <mxPoint x="539" y="663.75" as="sourcePoint" />
          </mxGeometry>
        </mxCell>
        <mxCell id="059MK03bxlvWC0EkIkUJ-54" value="" style="shape=requiredInterface;html=1;fontSize=11;align=center;fillColor=none;points=[];aspect=fixed;resizable=0;verticalAlign=bottom;labelPosition=center;verticalLabelPosition=top;flipH=1;flipV=0;" vertex="1" parent="1">
          <mxGeometry x="420" y="592.37" width="5" height="10" as="geometry" />
        </mxCell>
        <mxCell id="059MK03bxlvWC0EkIkUJ-28" value="HTTP Response" style="text;strokeColor=none;fillColor=none;align=left;verticalAlign=middle;spacingLeft=4;spacingRight=4;overflow=hidden;points=[[0,0.5],[1,0.5]];portConstraint=eastwest;rotatable=0;whiteSpace=wrap;html=1;" vertex="1" parent="1">
          <mxGeometry x="375.63" y="531.5" width="99.5" height="30" as="geometry" />
        </mxCell>
        <mxCell id="059MK03bxlvWC0EkIkUJ-29" value="" style="html=1;rounded=0;" vertex="1" parent="1">
          <mxGeometry x="310" y="559.7499999999999" width="11.25" height="11.25" as="geometry" />
        </mxCell>
        <mxCell id="059MK03bxlvWC0EkIkUJ-30" value="" style="endArrow=none;html=1;rounded=0;align=center;verticalAlign=top;endFill=0;labelBackgroundColor=none;endSize=2;entryX=1.029;entryY=0.531;entryDx=0;entryDy=0;entryPerimeter=0;exitX=1;exitY=0.5;exitDx=0;exitDy=0;" edge="1" parent="1" source="059MK03bxlvWC0EkIkUJ-29" target="059MK03bxlvWC0EkIkUJ-34">
          <mxGeometry relative="1" as="geometry">
            <mxPoint x="422.13200000000006" y="568.1819999999999" as="targetPoint" />
            <mxPoint x="321.25" y="576.2017305284247" as="sourcePoint" />
          </mxGeometry>
        </mxCell>
        <mxCell id="059MK03bxlvWC0EkIkUJ-32" value="" style="html=1;rounded=0;" vertex="1" parent="1">
          <mxGeometry x="590.78" y="559.75" width="11.5" height="11.5" as="geometry" />
        </mxCell>
        <mxCell id="059MK03bxlvWC0EkIkUJ-34" value="" style="ellipse;html=1;fontSize=11;align=center;fillColor=none;points=[];aspect=fixed;resizable=0;verticalAlign=bottom;labelPosition=center;verticalLabelPosition=top;flipH=1;" vertex="1" parent="1">
          <mxGeometry x="420" y="561.5" width="8" height="8" as="geometry" />
        </mxCell>
        <mxCell id="059MK03bxlvWC0EkIkUJ-35" value="" style="endArrow=none;html=1;rounded=0;align=center;verticalAlign=top;endFill=0;labelBackgroundColor=none;endSize=2;" edge="1" parent="1" source="059MK03bxlvWC0EkIkUJ-32" target="059MK03bxlvWC0EkIkUJ-31">
          <mxGeometry relative="1" as="geometry">
            <mxPoint x="431.5" y="608.25" as="targetPoint" />
            <mxPoint x="539" y="608" as="sourcePoint" />
          </mxGeometry>
        </mxCell>
        <mxCell id="059MK03bxlvWC0EkIkUJ-31" value="" style="shape=requiredInterface;html=1;fontSize=11;align=center;fillColor=none;points=[];aspect=fixed;resizable=0;verticalAlign=bottom;labelPosition=center;verticalLabelPosition=top;flipH=0;flipV=1;" vertex="1" parent="1">
          <mxGeometry x="428" y="560.5" width="5" height="10" as="geometry" />
        </mxCell>
        <mxCell id="EO0mccmYexMyjMeg_kil-16" value="HTTP Request" style="text;strokeColor=none;fillColor=none;align=left;verticalAlign=middle;spacingLeft=4;spacingRight=4;overflow=hidden;points=[[0,0.5],[1,0.5]];portConstraint=eastwest;rotatable=0;whiteSpace=wrap;html=1;" parent="1" vertex="1">
          <mxGeometry x="381.25" y="500.5" width="90" height="30" as="geometry" />
        </mxCell>
        <mxCell id="059MK03bxlvWC0EkIkUJ-21" value="" style="html=1;rounded=0;" vertex="1" parent="1">
          <mxGeometry x="310.66" y="529.88" width="11.25" height="11.25" as="geometry" />
        </mxCell>
        <mxCell id="059MK03bxlvWC0EkIkUJ-22" value="" style="endArrow=none;html=1;rounded=0;align=center;verticalAlign=top;endFill=0;labelBackgroundColor=none;endSize=2;" edge="1" source="059MK03bxlvWC0EkIkUJ-21" parent="1">
          <mxGeometry relative="1" as="geometry">
            <mxPoint x="420.75302325581396" y="535.63" as="targetPoint" />
          </mxGeometry>
        </mxCell>
        <mxCell id="059MK03bxlvWC0EkIkUJ-23" value="" style="shape=requiredInterface;html=1;fontSize=11;align=center;fillColor=none;points=[];aspect=fixed;resizable=0;verticalAlign=bottom;labelPosition=center;verticalLabelPosition=top;flipH=1;" vertex="1" parent="1">
          <mxGeometry x="421.5" y="530.5" width="5" height="10" as="geometry" />
        </mxCell>
        <mxCell id="059MK03bxlvWC0EkIkUJ-25" value="" style="html=1;rounded=0;" vertex="1" parent="1">
          <mxGeometry x="590.78" y="529.75" width="11.5" height="11.5" as="geometry" />
        </mxCell>
        <mxCell id="059MK03bxlvWC0EkIkUJ-26" value="" style="endArrow=none;html=1;rounded=0;align=center;verticalAlign=top;endFill=0;labelBackgroundColor=none;endSize=2;" edge="1" source="059MK03bxlvWC0EkIkUJ-25" target="059MK03bxlvWC0EkIkUJ-27" parent="1">
          <mxGeometry relative="1" as="geometry" />
        </mxCell>
        <mxCell id="059MK03bxlvWC0EkIkUJ-27" value="" style="ellipse;html=1;fontSize=11;align=center;fillColor=none;points=[];aspect=fixed;resizable=0;verticalAlign=bottom;labelPosition=center;verticalLabelPosition=top;flipH=1;" vertex="1" parent="1">
          <mxGeometry x="426.5" y="531.5" width="8" height="8" as="geometry" />
        </mxCell>
        <mxCell id="059MK03bxlvWC0EkIkUJ-61" style="edgeStyle=orthogonalEdgeStyle;rounded=0;orthogonalLoop=1;jettySize=auto;html=1;exitX=0;exitY=0.5;exitDx=0;exitDy=0;endArrow=circle;endFill=0;" edge="1" parent="1" source="059MK03bxlvWC0EkIkUJ-59">
          <mxGeometry relative="1" as="geometry">
            <mxPoint x="950" y="552.39" as="sourcePoint" />
            <mxPoint x="880" y="561" as="targetPoint" />
          </mxGeometry>
        </mxCell>
        <mxCell id="059MK03bxlvWC0EkIkUJ-59" value="&amp;lt;&amp;lt;component&amp;gt;&amp;gt;&lt;div&gt;Authentication&lt;/div&gt;" style="html=1;dropTarget=0;whiteSpace=wrap;verticalAlign=top;" vertex="1" parent="1">
          <mxGeometry x="950" y="510.03" width="205.44" height="102.72" as="geometry" />
        </mxCell>
        <mxCell id="059MK03bxlvWC0EkIkUJ-60" value="" style="shape=module;jettyWidth=8;jettyHeight=4;" vertex="1" parent="059MK03bxlvWC0EkIkUJ-59">
          <mxGeometry x="1" width="20" height="20" relative="1" as="geometry">
            <mxPoint x="-27" y="7" as="offset" />
          </mxGeometry>
        </mxCell>
        <mxCell id="059MK03bxlvWC0EkIkUJ-65" style="edgeStyle=orthogonalEdgeStyle;rounded=0;orthogonalLoop=1;jettySize=auto;html=1;exitX=0;exitY=0.5;exitDx=0;exitDy=0;endArrow=circle;endFill=0;" edge="1" parent="1">
          <mxGeometry relative="1" as="geometry">
            <mxPoint x="1018" y="719.3600000000001" as="sourcePoint" />
            <mxPoint x="808" y="719.75" as="targetPoint" />
            <Array as="points">
              <mxPoint x="998" y="719.75" />
              <mxPoint x="818" y="719.75" />
            </Array>
          </mxGeometry>
        </mxCell>
        <mxCell id="059MK03bxlvWC0EkIkUJ-66" value="&amp;lt;&amp;lt;component&amp;gt;&amp;gt;&lt;div&gt;Business Logic&lt;br&gt;&lt;/div&gt;" style="html=1;dropTarget=0;whiteSpace=wrap;verticalAlign=top;" vertex="1" parent="1">
          <mxGeometry x="950" y="671.25" width="205.44" height="102.72" as="geometry" />
        </mxCell>
        <mxCell id="059MK03bxlvWC0EkIkUJ-67" value="" style="shape=module;jettyWidth=8;jettyHeight=4;" vertex="1" parent="059MK03bxlvWC0EkIkUJ-66">
          <mxGeometry x="1" width="20" height="20" relative="1" as="geometry">
            <mxPoint x="-27" y="7" as="offset" />
          </mxGeometry>
        </mxCell>
        <mxCell id="059MK03bxlvWC0EkIkUJ-69" value="&amp;lt;&amp;lt;component&amp;gt;&amp;gt;&lt;div&gt;Data Access Layer&lt;/div&gt;" style="html=1;dropTarget=0;whiteSpace=wrap;verticalAlign=top;" vertex="1" parent="1">
          <mxGeometry x="1230" y="510.03" width="205.44" height="102.72" as="geometry" />
        </mxCell>
        <mxCell id="059MK03bxlvWC0EkIkUJ-70" value="" style="shape=module;jettyWidth=8;jettyHeight=4;" vertex="1" parent="059MK03bxlvWC0EkIkUJ-69">
          <mxGeometry x="1" width="20" height="20" relative="1" as="geometry">
            <mxPoint x="-27" y="7" as="offset" />
          </mxGeometry>
        </mxCell>
        <mxCell id="059MK03bxlvWC0EkIkUJ-71" value="&lt;div style=&quot;text-align: center;&quot;&gt;Authentication&lt;br&gt;&lt;/div&gt;" style="text;strokeColor=none;fillColor=none;align=left;verticalAlign=middle;spacingLeft=4;spacingRight=4;overflow=hidden;points=[[0,0.5],[1,0.5]];portConstraint=eastwest;rotatable=0;whiteSpace=wrap;html=1;" vertex="1" parent="1">
          <mxGeometry x="840" y="520.5" width="90" height="30" as="geometry" />
        </mxCell>
        <mxCell id="059MK03bxlvWC0EkIkUJ-73" style="edgeStyle=orthogonalEdgeStyle;rounded=0;orthogonalLoop=1;jettySize=auto;html=1;exitX=0.5;exitY=1;exitDx=0;exitDy=0;endArrow=circle;endFill=0;" edge="1" parent="1" source="059MK03bxlvWC0EkIkUJ-69">
          <mxGeometry relative="1" as="geometry">
            <mxPoint x="1480" y="713.5000000000001" as="sourcePoint" />
            <mxPoint x="1270" y="713.89" as="targetPoint" />
            <Array as="points">
              <mxPoint x="1333" y="714" />
            </Array>
          </mxGeometry>
        </mxCell>
        <mxCell id="059MK03bxlvWC0EkIkUJ-74" style="edgeStyle=orthogonalEdgeStyle;rounded=0;orthogonalLoop=1;jettySize=auto;html=1;exitX=0.998;exitY=0.409;exitDx=0;exitDy=0;endArrow=halfCircle;endFill=0;exitPerimeter=0;" edge="1" parent="1" source="059MK03bxlvWC0EkIkUJ-66">
          <mxGeometry relative="1" as="geometry">
            <mxPoint x="1272" y="713.5" as="targetPoint" />
            <mxPoint x="1167" y="606.5" as="sourcePoint" />
            <Array as="points">
              <mxPoint x="1167" y="713" />
            </Array>
          </mxGeometry>
        </mxCell>
        <mxCell id="059MK03bxlvWC0EkIkUJ-75" value="&lt;div style=&quot;text-align: center;&quot;&gt;Request handling&lt;/div&gt;" style="text;strokeColor=none;fillColor=none;align=left;verticalAlign=middle;spacingLeft=4;spacingRight=4;overflow=hidden;points=[[0,0.5],[1,0.5]];portConstraint=eastwest;rotatable=0;whiteSpace=wrap;html=1;" vertex="1" parent="1">
          <mxGeometry x="740" y="671.25" width="120" height="30" as="geometry" />
        </mxCell>
        <mxCell id="059MK03bxlvWC0EkIkUJ-76" value="&lt;div style=&quot;text-align: center;&quot;&gt;Database queries&lt;/div&gt;" style="text;strokeColor=none;fillColor=none;align=left;verticalAlign=middle;spacingLeft=4;spacingRight=4;overflow=hidden;points=[[0,0.5],[1,0.5]];portConstraint=eastwest;rotatable=0;whiteSpace=wrap;html=1;" vertex="1" parent="1">
          <mxGeometry x="1545" y="511.25" width="110" height="30" as="geometry" />
        </mxCell>
        <mxCell id="059MK03bxlvWC0EkIkUJ-80" value="&amp;lt;&amp;lt;datastore&amp;gt;&amp;gt;&lt;br&gt;postgres" style="html=1;dropTarget=0;whiteSpace=wrap;verticalAlign=top;" vertex="1" parent="1">
          <mxGeometry x="1720" y="505.14" width="205.44" height="102.72" as="geometry" />
        </mxCell>
        <mxCell id="059MK03bxlvWC0EkIkUJ-81" value="" style="shape=module;jettyWidth=8;jettyHeight=4;" vertex="1" parent="059MK03bxlvWC0EkIkUJ-80">
          <mxGeometry x="1" width="20" height="20" relative="1" as="geometry">
            <mxPoint x="-27" y="7" as="offset" />
          </mxGeometry>
        </mxCell>
        <mxCell id="059MK03bxlvWC0EkIkUJ-82" style="edgeStyle=orthogonalEdgeStyle;rounded=0;orthogonalLoop=1;jettySize=auto;html=1;exitX=0;exitY=0.5;exitDx=0;exitDy=0;endArrow=circle;endFill=0;" edge="1" parent="1" source="059MK03bxlvWC0EkIkUJ-80">
          <mxGeometry relative="1" as="geometry">
            <mxPoint x="1640" y="555.16" as="sourcePoint" />
            <mxPoint x="1600" y="556" as="targetPoint" />
          </mxGeometry>
        </mxCell>
        <mxCell id="059MK03bxlvWC0EkIkUJ-86" value="" style="fontStyle=0;labelPosition=right;verticalLabelPosition=middle;align=left;verticalAlign=middle;spacingLeft=2;" vertex="1" parent="1">
          <mxGeometry x="1710" y="550.5" width="10" height="10" as="geometry" />
        </mxCell>
        <mxCell id="059MK03bxlvWC0EkIkUJ-90" value="&lt;div style=&quot;text-align: center;&quot;&gt;Data transfer&lt;/div&gt;" style="text;strokeColor=none;fillColor=none;align=left;verticalAlign=middle;spacingLeft=4;spacingRight=4;overflow=hidden;points=[[0,0.5],[1,0.5]];portConstraint=eastwest;rotatable=0;whiteSpace=wrap;html=1;" vertex="1" parent="1">
          <mxGeometry x="1220" y="671.25" width="110" height="30" as="geometry" />
        </mxCell>
      </root>
    </mxGraphModel>
  </diagram>
</mxfile>
